<?xml version="1.0" standalone="no"?>
<!DOCTYPE svg PUBLIC "-//W3C//DTD SVG 20010904//EN"
 "http://www.w3.org/TR/2001/REC-SVG-20010904/DTD/svg10.dtd">
<svg version="1.0" xmlns="http://www.w3.org/2000/svg"
 width="200.000000pt" height="200.000000pt" viewBox="0 0 200.000000 200.000000"
 preserveAspectRatio="xMidYMid meet">
<metadata>
Created by potrace 1.14, written by Peter Selinger 2001-2017
</metadata>
<g transform="translate(0.000000,200.000000) scale(0.100000,-0.100000)"
fill="#000000" stroke="none">
<path d="M834 1680 c-191 -50 -354 -182 -438 -356 -49 -99 -66 -178 -66 -309
l0 -111 -41 -39 c-112 -109 -212 -261 -225 -343 -9 -58 18 -109 70 -133 80
-36 257 -14 423 54 l62 25 73 -38 c40 -21 102 -46 138 -56 88 -24 253 -24 340
0 180 49 350 186 428 346 56 115 72 183 72 313 l0 108 88 99 c150 171 202 283
169 363 -43 101 -196 109 -447 22 l-103 -36 -68 36 c-140 74 -324 95 -475 55z
m994 -96 c27 -19 28 -42 2 -97 -20 -43 -128 -185 -168 -220 -20 -18 -21 -18
-57 54 -20 40 -59 101 -86 135 -27 34 -49 64 -49 67 0 3 28 15 63 26 152 50
256 63 295 35z m-654 -172 c118 -55 209 -163 242 -286 8 -28 14 -54 14 -58 0
-10 -160 -131 -167 -125 -2 3 0 14 6 25 19 36 13 71 -14 84 -22 10 -29 9 -44
-8 -20 -20 -111 -226 -111 -249 0 -31 42 -45 139 -45 l95 0 -39 -41 c-51 -52
-144 -97 -229 -112 -220 -37 -436 113 -487 338 -12 54 -12 55 16 77 56 44 140
106 142 105 1 -1 -3 -21 -10 -44 -13 -50 2 -76 42 -71 22 3 33 18 78 118 28
63 52 123 52 132 2 37 -26 48 -127 48 l-96 0 33 34 c38 39 130 91 187 106 22
5 78 8 126 6 71 -3 98 -9 152 -34z m-495 -220 c-95 -72 -100 -75 -93 -56 24
73 24 74 72 74 l45 0 -24 -18z m730 -306 c-12 -43 -24 -50 -69 -39 l-31 8 52
37 c29 20 54 36 56 34 1 -1 -2 -19 -8 -40z m-1007 -164 c20 -42 60 -103 88
-134 l50 -56 -52 -20 c-139 -51 -294 -70 -325 -39 -23 22 -10 73 35 143 38 59
148 185 161 183 3 0 23 -35 43 -77z"/>
</g>
</svg>
